<svg width="600" height="600" viewBox="0 0 600 600" fill="none" xmlns="http://www.w3.org/2000/svg">
<rect width="600" height="600" fill="#58595B"/>
<rect x="25" y="24" width="550" height="550" fill="white"/>
<rect x="53" y="53" width="495" height="495" fill="#58595B"/>
<path d="M79.5 389.5V520.5H106V468.5H183.5V520.5H210V389.5H79.5Z" fill="white"/>
<path d="M392 389V520H418.5V468H496V520H522.5V389H392Z" fill="white"/>
<path d="M105.5 441.5V416H184V441.5H105.5Z" fill="#58595B"/>
<path d="M418 441.5V416H496.5V441.5H418Z" fill="#58595B"/>
<path d="M444 494L471 494L471 548L444 548L444 494Z" fill="white"/>
<path d="M262 364.5H235.5V233.5H366V312H262V364.5Z" fill="white"/>
<path d="M236 520.5H262V468H340V520.5H367.5V337.5H340V441.5H262V389.5H236V520.5Z" fill="white"/>
<path d="M262.5 77H235.5V208.5H314V103.5H340V208.5H367V77H288V181H262.5V77Z" fill="white"/>
<path d="M107 233H80V364.5H158.5V259.5H184.5V364.5H211.5V233H132.5V337H107V233Z" fill="white"/>
<path d="M418 234H391V365.5H469.5V260.5H495.5V365.5H522.5V234H443.5V338H418V234Z" fill="white"/>
<path d="M391.5 208.5V77H522.5V104H419V129.5H522.5V208.5H391.5Z" fill="white"/>
<path d="M418 181.5V155.5H496.5V181.5H418Z" fill="#58595B"/>
<path d="M261 286V260H339.5V286H261Z" fill="#58595B"/>
<path d="M209.5 77V103.5H106.5V181.5H209.5V207.5H80V77H209.5Z" fill="white"/>
</svg>
